<svg width="24" height="24" viewBox="0 0 24 24" fill="none" xmlns="http://www.w3.org/2000/svg" stroke="currentColor"><path transform="translate(2 2)" d="M5.00002 1.00002C3.31987 1.00002 3.27979 1.00002 2.63805 1.327C2.07357 1.61462 1.61462 2.07356 1.327 2.63805C1.00002 3.27978 1.00002 3.31986 1.00002 5.00002M5.00393 19C3.32377 19 3.27979 19 2.63805 18.673C2.07357 18.3854 1.61462 17.9265 1.327 17.362C1.00002 16.7203 1.00392 16.6802 1.00392 15M19.0001 5.00002C19.0001 3.31986 19.0001 3.27978 18.6731 2.63805C18.3855 2.07356 17.9265 1.61462 17.362 1.327C16.7203 1.00002 16.6802 1.00002 15 1.00002M19.0001 15C19.0001 16.6802 19.0001 16.7203 18.6731 17.362C18.3855 17.9265 17.9265 18.3854 17.362 18.673C16.7203 19 16.6841 19 15.0039 19M5.99093 9.9999C5.99093 8.31974 5.99093 8.27966 6.31791 7.63793C6.60553 7.07344 7.06447 6.6145 7.62896 6.32688C8.27069 5.9999 8.31076 5.9999 9.99091 5.9999C11.6711 5.9999 11.7112 5.9999 12.3529 6.32688C12.9174 6.6145 13.3763 7.07344 13.6639 7.63793C13.9909 8.27966 13.9909 8.31974 13.9909 9.9999M9.99453 13.9999C8.31438 13.9999 8.27039 13.9999 7.62866 13.6729C7.06417 13.3853 6.60523 12.9264 6.31761 12.3619C5.99063 11.7201 5.99453 11.6801 5.99453 9.9999M14.0039 9.9999C14.0039 11.6801 14.0039 11.7201 13.6769 12.3619C13.3893 12.9264 12.9304 13.3853 12.3659 13.6729C11.7242 13.9999 11.688 13.9999 10.0078 13.9999" stroke-width="2" stroke-linecap="round" stroke-linejoin="round"/></svg>
